<svg width="2148" height="1224" xmlns="http://www.w3.org/2000/svg" xmlns:xlink="http://www.w3.org/1999/xlink" xml:space="preserve" overflow="hidden"><g transform="translate(1 1)"><rect x="0" y="0" width="2145" height="1221" fill="#FFFFFF"/><g><path d="M130.5 848.528 1910.5 848.528M130.5 760.525 1910.5 760.525M130.5 671.522 1910.5 671.522M130.5 582.519 1910.5 582.519M130.5 493.516 1910.5 493.516M130.5 405.513 1910.5 405.513M130.5 316.511 1910.5 316.511M130.5 227.508 1910.5 227.508M130.5 139.505 1910.5 139.505M130.5 50.5 1910.5 50.5" stroke="#D9D9D9" stroke-width="3.4375" stroke-linejoin="round" stroke-miterlimit="10" fill="none"/></g><g><path d="M179.006 622.02 224.007 622.02 224.007 937 179.006 937ZM434.014 646.021 478.016 646.021 478.016 937 434.014 937ZM688.023 600.02 732.024 600.02 732.024 937 688.023 937ZM942.031 784.026 987.032 784.026 987.032 937 942.031 937ZM1196.04 168.006 1241.04 168.006 1241.04 937 1196.04 937ZM1451.05 511.017 1495.05 511.017 1495.05 937 1451.05 937ZM1705.06 365.012 1749.06 365.012 1749.06 937 1705.06 937Z" fill="#4472C4"/></g><g><path d="M236.008 687.023 280.009 687.023 280.009 937 236.008 937ZM490.016 710.023 534.018 710.023 534.018 937 490.016 937ZM744.024 669.022 789.026 669.022 789.026 937 744.024 937ZM998.033 773.025 1043.03 773.025 1043.03 937 998.033 937ZM1253.04 346.011 1297.04 346.011 1297.04 937 1253.04 937ZM1507.05 661.022 1551.05 661.022 1551.05 937 1507.05 937ZM1761.06 328.011 1806.06 328.011 1806.06 937 1761.06 937Z" fill="#ED7D31"/></g><g><path d="M292.01 755.025 336.011 755.025 336.011 937 292.01 937ZM546.018 729.024 591.019 729.024 591.019 937 546.018 937ZM801.026 709.023 845.028 709.023 845.028 937 801.026 937ZM1055.03 773.025 1099.04 773.025 1099.04 937 1055.03 937ZM1309.04 566.019 1353.04 566.019 1353.04 937 1309.04 937ZM1563.05 699.023 1608.05 699.023 1608.05 937 1563.05 937ZM1818.06 523.017 1862.06 523.017 1862.06 937 1818.06 937Z" fill="#A5A5A5"/></g><g><path d="M130.5 937.5 1910.5 937.5" stroke="#D9D9D9" stroke-width="3.4375" stroke-linejoin="round" stroke-miterlimit="10" fill="none" fill-rule="evenodd"/></g><g><path d="M130.5 937.5 130.5 1067.5M639.521 937.5 639.521 1067.5M1402.55 937.5 1402.55 1067.5M1910.5 937.5 1910.5 1067.5" stroke="#D9D9D9" stroke-width="3.4375" stroke-linejoin="round" stroke-miterlimit="10" fill="none"/></g><g><path d="M130.5 1067.5 130.5 1198.5M639.521 1067.5 639.521 1198.5M1402.55 1067.5 1402.55 1198.5M1910.5 1067.5 1910.5 1198.5" stroke="#D9D9D9" stroke-width="3.4375" stroke-linejoin="round" stroke-miterlimit="10" fill="none"/></g><g><text fill="#404040" font-family="Calibri,Calibri_MSFontService,sans-serif" font-weight="400" font-size="41" transform="matrix(6.12323e-17 1 -1 6.12323e-17 187.71 522)">71.0</text></g><g><text fill="#404040" font-family="Calibri,Calibri_MSFontService,sans-serif" font-weight="400" font-size="41" transform="matrix(6.12323e-17 1 -1 6.12323e-17 441.983 545)">65.8</text></g><g><text fill="#404040" font-family="Calibri,Calibri_MSFontService,sans-serif" font-weight="400" font-size="41" transform="matrix(6.12323e-17 1 -1 6.12323e-17 696.256 500)">76.0</text></g><g><text fill="#404040" font-family="Calibri,Calibri_MSFontService,sans-serif" font-weight="400" font-size="41" transform="matrix(6.12323e-17 1 -1 6.12323e-17 950.529 684)">34.5</text></g><g><text fill="#404040" font-family="Calibri,Calibri_MSFontService,sans-serif" font-weight="400" font-size="41" transform="matrix(6.12323e-17 1 -1 6.12323e-17 1204.8 46)">173.6</text></g><g><text fill="#404040" font-family="Calibri,Calibri_MSFontService,sans-serif" font-weight="400" font-size="41" transform="matrix(6.12323e-17 1 -1 6.12323e-17 1459.08 411)">96.1</text></g><g><text fill="#404040" font-family="Calibri,Calibri_MSFontService,sans-serif" font-weight="400" font-size="41" transform="matrix(6.12323e-17 1 -1 6.12323e-17 1713.35 243)">129.1</text></g><g><text fill="#404040" font-family="Calibri,Calibri_MSFontService,sans-serif" font-weight="400" font-size="41" transform="matrix(6.12323e-17 1 -1 6.12323e-17 244.067 586)">56.5</text></g><g><text fill="#404040" font-family="Calibri,Calibri_MSFontService,sans-serif" font-weight="400" font-size="41" transform="matrix(6.12323e-17 1 -1 6.12323e-17 498.34 609)">51.3</text></g><g><text fill="#404040" font-family="Calibri,Calibri_MSFontService,sans-serif" font-weight="400" font-size="41" transform="matrix(6.12323e-17 1 -1 6.12323e-17 752.613 568)">60.5</text></g><g><text fill="#404040" font-family="Calibri,Calibri_MSFontService,sans-serif" font-weight="400" font-size="41" transform="matrix(6.12323e-17 1 -1 6.12323e-17 1006.89 672)">37.2</text></g><g><text fill="#404040" font-family="Calibri,Calibri_MSFontService,sans-serif" font-weight="400" font-size="41" transform="matrix(6.12323e-17 1 -1 6.12323e-17 1261.16 225)">133.3</text></g><g><text fill="#404040" font-family="Calibri,Calibri_MSFontService,sans-serif" font-weight="400" font-size="41" transform="matrix(6.12323e-17 1 -1 6.12323e-17 1515.43 561)">62.2</text></g><g><text fill="#404040" font-family="Calibri,Calibri_MSFontService,sans-serif" font-weight="400" font-size="41" transform="matrix(6.12323e-17 1 -1 6.12323e-17 1769.71 206)">137.4</text></g><g><text fill="#404040" font-family="Calibri,Calibri_MSFontService,sans-serif" font-weight="400" font-size="41" transform="matrix(6.12323e-17 1 -1 6.12323e-17 300.424 655)">41.1</text></g><g><text fill="#404040" font-family="Calibri,Calibri_MSFontService,sans-serif" font-weight="400" font-size="41" transform="matrix(6.12323e-17 1 -1 6.12323e-17 554.697 628)">47.0</text></g><g><text fill="#404040" font-family="Calibri,Calibri_MSFontService,sans-serif" font-weight="400" font-size="41" transform="matrix(6.12323e-17 1 -1 6.12323e-17 808.97 608)">51.6</text></g><g><text fill="#404040" font-family="Calibri,Calibri_MSFontService,sans-serif" font-weight="400" font-size="41" transform="matrix(6.12323e-17 1 -1 6.12323e-17 1063.24 672)">37.2</text></g><g><text fill="#404040" font-family="Calibri,Calibri_MSFontService,sans-serif" font-weight="400" font-size="41" transform="matrix(6.12323e-17 1 -1 6.12323e-17 1317.52 466)">83.7</text></g><g><text fill="#404040" font-family="Calibri,Calibri_MSFontService,sans-serif" font-weight="400" font-size="41" transform="matrix(6.12323e-17 1 -1 6.12323e-17 1571.79 599)">53.7</text></g><g><text fill="#404040" font-family="Calibri,Calibri_MSFontService,sans-serif" font-weight="400" font-size="41" transform="matrix(6.12323e-17 1 -1 6.12323e-17 1826.06 423)">93.4</text></g><g><text fill="#595959" font-family="Calibri,Calibri_MSFontService,sans-serif" font-weight="400" font-size="41" transform="matrix(1 0 0 1 71.5917 949)">0</text></g><g><text fill="#595959" font-family="Calibri,Calibri_MSFontService,sans-serif" font-weight="400" font-size="41" transform="matrix(1 0 0 1 50.6917 860)">20</text></g><g><text fill="#595959" font-family="Calibri,Calibri_MSFontService,sans-serif" font-weight="400" font-size="41" transform="matrix(1 0 0 1 50.6917 772)">40</text></g><g><text fill="#595959" font-family="Calibri,Calibri_MSFontService,sans-serif" font-weight="400" font-size="41" transform="matrix(1 0 0 1 50.6917 683)">60</text></g><g><text fill="#595959" font-family="Calibri,Calibri_MSFontService,sans-serif" font-weight="400" font-size="41" transform="matrix(1 0 0 1 50.6917 594)">80</text></g><g><text fill="#595959" font-family="Calibri,Calibri_MSFontService,sans-serif" font-weight="400" font-size="41" transform="matrix(1 0 0 1 29.7917 505)">100</text></g><g><text fill="#595959" font-family="Calibri,Calibri_MSFontService,sans-serif" font-weight="400" font-size="41" transform="matrix(1 0 0 1 29.7917 417)">120</text></g><g><text fill="#595959" font-family="Calibri,Calibri_MSFontService,sans-serif" font-weight="400" font-size="41" transform="matrix(1 0 0 1 29.7917 328)">140</text></g><g><text fill="#595959" font-family="Calibri,Calibri_MSFontService,sans-serif" font-weight="400" font-size="41" transform="matrix(1 0 0 1 29.7917 239)">160</text></g><g><text fill="#595959" font-family="Calibri,Calibri_MSFontService,sans-serif" font-weight="400" font-size="41" transform="matrix(1 0 0 1 29.7917 151)">180</text></g><g><text fill="#595959" font-family="Calibri,Calibri_MSFontService,sans-serif" font-weight="400" font-size="41" transform="matrix(1 0 0 1 29.7917 62)">200</text></g><g><text fill="#595959" font-family="Calibri,Calibri_MSFontService,sans-serif" font-weight="400" font-size="41" transform="matrix(1 0 0 1 164.956 1003)">East Asia &amp;</text></g><g><text fill="#595959" font-family="Calibri,Calibri_MSFontService,sans-serif" font-weight="400" font-size="41" transform="matrix(1 0 0 1 204.167 1053)">Pacific</text></g><g><text fill="#595959" font-family="Calibri,Calibri_MSFontService,sans-serif" font-weight="400" font-size="41" transform="matrix(1 0 0 1 433.346 1003)">Europe &amp;</text></g><g><text fill="#595959" font-family="Calibri,Calibri_MSFontService,sans-serif" font-weight="400" font-size="41" transform="matrix(1 0 0 1 412.068 1053)">Central Asia</text></g><g><text fill="#595959" font-family="Calibri,Calibri_MSFontService,sans-serif" font-weight="400" font-size="41" transform="matrix(1 0 0 1 651.537 1003)">Latin America</text></g><g><text fill="#595959" font-family="Calibri,Calibri_MSFontService,sans-serif" font-weight="400" font-size="41" transform="matrix(1 0 0 1 662.239 1053)">&amp; Caribbean</text></g><g><text fill="#595959" font-family="Calibri,Calibri_MSFontService,sans-serif" font-weight="400" font-size="41" transform="matrix(1 0 0 1 897.709 1003)">North America</text></g><g><text fill="#595959" font-family="Calibri,Calibri_MSFontService,sans-serif" font-weight="400" font-size="41" transform="matrix(1 0 0 1 1186.77 1003)">South Asia</text></g><g><text fill="#595959" font-family="Calibri,Calibri_MSFontService,sans-serif" font-weight="400" font-size="41" transform="matrix(1 0 0 1 1411.89 1003)">Middle East &amp;</text></g><g><text fill="#595959" font-family="Calibri,Calibri_MSFontService,sans-serif" font-weight="400" font-size="41" transform="matrix(1 0 0 1 1426.71 1053)">North Africa</text></g><g><text fill="#595959" font-family="Calibri,Calibri_MSFontService,sans-serif" font-weight="400" font-size="41" transform="matrix(1 0 0 1 1678.08 1003)">Sub-Saharan</text></g><g><text fill="#595959" font-family="Calibri,Calibri_MSFontService,sans-serif" font-weight="400" font-size="41" transform="matrix(1 0 0 1 1734.78 1053)">Africa</text></g><g><text fill="#595959" font-family="Calibri,Calibri_MSFontService,sans-serif" font-weight="400" font-size="41" transform="matrix(1 0 0 1 132.729 1133)">East Asia &amp; Pacific and Europe</text></g><g><text fill="#595959" font-family="Calibri,Calibri_MSFontService,sans-serif" font-weight="400" font-size="41" transform="matrix(1 0 0 1 266.197 1183)">&amp; Central Asia</text></g><g><text fill="#595959" font-family="Calibri,Calibri_MSFontService,sans-serif" font-weight="400" font-size="41" transform="matrix(1 0 0 1 831.823 1133)">Americas &amp; South Asia</text></g><g><text fill="#595959" font-family="Calibri,Calibri_MSFontService,sans-serif" font-weight="400" font-size="41" transform="matrix(1 0 0 1 1485.61 1133)">Africa &amp; Middle East</text></g><g><rect x="1983" y="522" width="22" height="22" fill="#4472C4"/></g><g><text fill="#595959" font-family="Calibri,Calibri_MSFontService,sans-serif" font-weight="400" font-size="41" transform="matrix(1 0 0 1 2014.99 545)">1980</text></g><g><rect x="1983" y="599" width="22" height="22.9997" fill="#ED7D31"/></g><g><text fill="#595959" font-family="Calibri,Calibri_MSFontService,sans-serif" font-weight="400" font-size="41" transform="matrix(1 0 0 1 2014.99 622)">2000</text></g><g><rect x="1983" y="677" width="22" height="22" fill="#A5A5A5"/></g><g><text fill="#595959" font-family="Calibri,Calibri_MSFontService,sans-serif" font-weight="400" font-size="41" transform="matrix(1 0 0 1 2014.99 699)">2020</text></g><rect x="0.499836" y="0.499836" width="2145" height="1221" stroke="#D9D9D9" stroke-width="3.4375" stroke-linejoin="round" stroke-miterlimit="10" fill="none"/></g></svg>